<?xml version="1.0" encoding="UTF-8" standalone="no"?>
<!DOCTYPE svg PUBLIC "-//W3C//DTD SVG 1.1//EN"
"http://www.w3.org/Graphics/SVG/1.1/DTD/svg11.dtd">


<!-- Page 1 -->
<svg x="0" y="0" width="808" height="369" viewBox="0 0 808 369" version="1.1" xmlns="http://www.w3.org/2000/svg" xmlns:xlink="http://www.w3.org/1999/xlink"
style="display: block;margin-left: auto;margin-right: auto;">
<defs>

<style type="text/css"><![CDATA[

.g1_1{
fill: #30B18F;
}
.g2_1{
fill: #008044;
}
.g3_1{
fill: #231F20;
}


]]></style>

</defs>

<path d="M133.2,117.8c-2.1,-0.8,-4,-1.3,-5.5,-1.6c-1.6,-0.2,-3.4,-0.3,-5.3,-0.3c-4.2,0,-7.2,0.9,-8.9,2.8c-1.8,1.9,-2.6,5.4,-2.6,10.4l0,6.9l13.6,0l0,18.9l-13.6,0l0,67.6l-21.6,0l0,-67.6l-10.5,0l0,-18.9l10.5,0l0,-6.6c0,-10.9,2,-19.2,6.1,-24.9c4.1,-5.7,11.2,-8.6,21.5,-8.6c5.8,0,11.2,0.7,16.3,2.1Z" class="g1_1" />
<path d="M204.7,179.1c0,-3.6,-0.6,-7.1,-1.9,-10.3c-1.3,-3.2,-3.1,-6,-5.3,-8.4c-2.3,-2.4,-4.9,-4.3,-7.9,-5.6c-3,-1.4,-6.2,-2,-9.5,-2c-3.4,0,-6.6,0.6,-9.6,2c-3,1.3,-5.6,3.2,-7.9,5.6c-2.2,2.4,-4,5.2,-5.3,8.4c-1.3,3.2,-1.9,6.7,-1.9,10.3c0,3.7,0.6,7.2,1.9,10.4c1.3,3.2,3.1,6,5.3,8.4c2.3,2.4,4.9,4.3,7.9,5.6c3,1.4,6.2,2,9.6,2c3.3,0,6.5,-0.6,9.5,-2c3,-1.3,5.6,-3.2,7.9,-5.6c2.2,-2.4,4,-5.2,5.3,-8.4c1.3,-3.2,1.9,-6.7,1.9,-10.4m21.6,0c0,6.5,-1.2,12.6,-3.6,18.1c-2.4,5.6,-5.7,10.4,-9.9,14.4c-4.2,4.1,-9.1,7.3,-14.7,9.6c-5.7,2.4,-11.7,3.5,-18.1,3.5c-6.4,0,-12.4,-1.1,-18,-3.5c-5.6,-2.3,-10.5,-5.6,-14.7,-9.7c-4.2,-4.1,-7.5,-8.9,-9.9,-14.4c-2.4,-5.6,-3.6,-11.6,-3.6,-18c0,-6.2,1.2,-12.2,3.7,-17.7c2.4,-5.6,5.7,-10.4,9.9,-14.6c4.2,-4.1,9.1,-7.4,14.7,-9.7c5.6,-2.4,11.6,-3.5,17.9,-3.5c6.4,0,12.4,1.1,18.1,3.5c5.6,2.3,10.5,5.5,14.7,9.6c4.2,4,7.5,8.9,9.9,14.5c2.4,5.6,3.6,11.6,3.6,17.9Z" class="g1_1" />
<path d="M307.7,179.1c0,-3.6,-0.6,-7.1,-1.9,-10.3c-1.3,-3.2,-3.1,-6,-5.3,-8.4c-2.2,-2.4,-4.9,-4.3,-7.9,-5.6c-2.9,-1.4,-6.1,-2,-9.5,-2c-3.4,0,-6.6,0.6,-9.6,2c-3,1.3,-5.6,3.2,-7.8,5.6c-2.3,2.4,-4,5.2,-5.3,8.4c-1.3,3.2,-2,6.7,-2,10.3c0,3.7,0.7,7.2,2,10.4c1.3,3.2,3,6,5.3,8.4c2.2,2.4,4.8,4.3,7.8,5.6c3,1.4,6.2,2,9.6,2c3.4,0,6.6,-0.6,9.5,-2c3,-1.3,5.7,-3.2,7.9,-5.6c2.2,-2.4,4,-5.2,5.3,-8.4c1.3,-3.2,1.9,-6.7,1.9,-10.4m21.6,0c0,6.5,-1.2,12.6,-3.6,18.1c-2.4,5.6,-5.7,10.4,-9.9,14.4c-4.2,4.1,-9.1,7.3,-14.7,9.6c-5.7,2.4,-11.7,3.5,-18.1,3.5c-6.4,0,-12.4,-1.1,-18,-3.5c-5.6,-2.3,-10.5,-5.6,-14.7,-9.7c-4.2,-4.1,-7.5,-8.9,-9.9,-14.4c-2.4,-5.6,-3.6,-11.6,-3.6,-18c0,-6.2,1.2,-12.2,3.7,-17.7c2.4,-5.6,5.8,-10.4,10,-14.6c4.2,-4.1,9.1,-7.4,14.7,-9.7c5.6,-2.4,11.5,-3.5,17.8,-3.5c6.4,0,12.4,1.1,18.1,3.5c5.6,2.3,10.5,5.5,14.7,9.6c4.2,4,7.5,8.9,9.9,14.5c2.4,5.6,3.6,11.6,3.6,17.9Z" class="g1_1" />
<path d="M401.5,199.2l0,-41.6c-1,-0.7,-2.2,-1.4,-3.5,-2.1c-1.3,-0.6,-2.7,-1.2,-4.1,-1.6c-1.4,-0.5,-2.8,-0.8,-4.2,-1.1c-1.4,-0.2,-2.6,-0.3,-3.7,-0.3c-3.6,0,-6.9,0.6,-9.9,1.8c-3,1.3,-5.5,3.1,-7.7,5.4c-2.3,2.4,-4,5.2,-5.2,8.5c-1.2,3.3,-1.8,7,-1.8,11c0,3.8,0.6,7.4,1.8,10.7c1.2,3.2,2.9,6,5,8.4c2.1,2.3,4.6,4.1,7.6,5.4c3,1.3,6.2,2,9.7,2c5.7,0,11.1,-2.2,16,-6.5m21.7,23.3l-22,0l0,-4.5c-2.8,2.3,-5.9,4,-9.2,5c-3.3,1.1,-6.8,1.6,-10.5,1.6c-6.1,0,-11.7,-1.2,-16.8,-3.7c-5.1,-2.4,-9.5,-5.7,-13.2,-9.9c-3.7,-4.1,-6.5,-9,-8.6,-14.5c-2,-5.5,-3.1,-11.3,-3.1,-17.3c0,-6.5,1.2,-12.6,3.6,-18.1c2.3,-5.6,5.4,-10.4,9.3,-14.5c3.9,-4.1,8.4,-7.3,13.4,-9.7c5,-2.3,10.1,-3.5,15.4,-3.5c3.7,0,7.3,0.5,10.8,1.5c3.5,1,6.5,2.4,9,4.2l0,-41.1l21.9,0Z" class="g1_1" />
<path d="M477.8,222c-1.7,0.8,-3.6,1.5,-5.8,2c-2.1,0.5,-4.3,0.7,-6.6,0.7c-3.2,0,-6.3,-0.4,-9.3,-1.2c-2.9,-0.9,-5.5,-2.3,-7.7,-4.2c-2.2,-1.9,-3.9,-4.3,-5.2,-7.4c-1.3,-3,-2,-6.7,-2,-11L441.2,98l22.1,0l0,99.1c0,3.6,0.7,6.1,2.1,7.5c1.5,1.3,3.2,2,5.2,2c2.5,0,4.9,-0.8,7.2,-2.3Z" class="g2_1" />
<path d="M537,200.9l0,-16.1l-9.9,0c-3,0,-5.8,0.3,-8.4,0.6c-2.7,0.4,-5,1.1,-6.9,2.1c-2,0.9,-3.5,2.1,-4.7,3.6c-1.1,1.5,-1.7,3.3,-1.7,5.4c0,3,1.2,5.5,3.5,7.4c2.4,1.9,5.4,2.8,9.1,2.8c3.2,0,6.4,-0.5,9.5,-1.5c3.2,-1,6.3,-2.4,9.5,-4.3m21.6,21.6l-21.6,0l0,-4.7c-3.8,2.6,-7.8,4.4,-12,5.4c-4.3,1,-8.7,1.5,-13.2,1.5c-4.2,0,-8,-0.6,-11.4,-1.8c-3.4,-1.3,-6.3,-3.1,-8.8,-5.4c-2.5,-2.4,-4.4,-5.2,-5.8,-8.4c-1.3,-3.2,-2,-6.7,-2,-10.6c0,-4.9,1.1,-9.2,3.2,-12.8c2.2,-3.7,5.1,-6.7,8.8,-9.2c3.7,-2.4,8,-4.2,13,-5.4c4.9,-1.2,10.2,-1.8,15.9,-1.8l12.5,0c0,-5.1,-1.7,-9.2,-5,-12.2c-3.3,-3,-8,-4.5,-14.2,-4.5c-3,0,-6.1,0.6,-9.3,1.7c-3.2,1.1,-6.4,3.1,-9.6,6L486.3,147.4c4.6,-4.4,10,-7.8,16,-10.2c6.1,-2.4,12.3,-3.6,18.7,-3.6c6,0,11.3,0.9,16,2.8c4.7,1.9,8.5,4.4,11.3,7.4c3.8,3.8,6.5,8,8,12.7c1.6,4.7,2.3,10.7,2.3,18Z" class="g2_1" />
<path d="M636.7,179.1c0,-3.9,-0.6,-7.6,-1.8,-10.9c-1.2,-3.3,-2.8,-6.1,-5,-8.5c-2.2,-2.3,-4.7,-4.1,-7.7,-5.4c-2.9,-1.2,-6.2,-1.8,-9.8,-1.8c-2.3,0,-5,0.4,-8,1.4c-3,0.9,-5.5,2.2,-7.5,3.7l0,41.6c4.7,4.3,10,6.5,15.9,6.5c3.4,0,6.6,-0.7,9.6,-2c2.9,-1.3,5.5,-3.1,7.6,-5.4c2.1,-2.4,3.7,-5.2,4.9,-8.4c1.2,-3.3,1.8,-6.9,1.8,-10.8m21.9,0c0,6.1,-1,11.9,-3,17.4c-2.1,5.5,-5,10.4,-8.7,14.5c-3.7,4.2,-8.1,7.5,-13.2,9.9c-5.1,2.5,-10.7,3.7,-16.8,3.7c-3.9,0,-7.4,-0.5,-10.7,-1.6c-3.3,-1,-6.4,-2.7,-9.3,-5l0,4.5l-21.6,0L575.3,98L597,98l0.2,42c2.5,-2,5.4,-3.6,8.9,-4.8c3.4,-1.2,7.1,-1.8,10.9,-1.8c5.3,0,10.4,1.2,15.4,3.5c5,2.4,9.4,5.6,13.3,9.7c3.9,4.1,7.1,8.9,9.4,14.5c2.4,5.5,3.5,11.6,3.5,18Z" class="g2_1" />
<path d="M735.7,198.2c0,4.3,-1,8.1,-3,11.5c-2,3.3,-4.6,6.1,-7.8,8.4c-3.2,2.2,-6.8,3.9,-10.8,5.1c-4,1.1,-8,1.7,-11.9,1.7c-6.6,0,-12.7,-1.2,-18.3,-3.7c-5.5,-2.4,-10.4,-6.4,-14.6,-11.8l13,-13.2c2.6,3.3,5.6,5.9,9,7.8c3.4,1.8,7.1,2.7,11,2.7c3.4,0,6.2,-0.6,8.5,-1.8c2.2,-1.3,3.3,-3.2,3.3,-5.7c0,-2.6,-1.6,-4.7,-4.8,-6.5c-3.2,-1.7,-7.7,-3.5,-13.5,-5.2c-3.4,-1,-6.7,-2.2,-9.9,-3.8c-3.2,-1.5,-6,-3.4,-8.5,-5.7c-2.5,-2.2,-4.5,-4.8,-6,-7.7c-1.5,-2.9,-2.3,-6.2,-2.3,-10c0,-4.2,1,-8,3,-11.4c1.9,-3.3,4.5,-6.1,7.6,-8.4c3.2,-2.2,6.8,-3.9,10.8,-5.1c4,-1.2,8,-1.8,12.2,-1.8c13.2,0,24,5,32.4,15l-12.9,13c-2.5,-3.1,-5.3,-5.5,-8.5,-7.3c-3.2,-1.8,-6.7,-2.7,-10.5,-2.7c-1.3,0,-2.7,0.1,-4.1,0.5c-1.5,0.3,-2.8,0.8,-4.1,1.5c-1.2,0.6,-2.3,1.5,-3.1,2.5c-0.8,1.1,-1.2,2.3,-1.2,3.6c0,2.3,1.6,4.3,4.6,6c3.1,1.7,7.4,3.4,13.1,5.1c3.7,1.1,7.2,2.5,10.5,4.2c3.3,1.7,6.2,3.6,8.7,5.9c2.5,2.2,4.5,4.8,5.9,7.6c1.5,2.9,2.2,6.1,2.2,9.7Z" class="g2_1" />
<path d="M63.6,250.4l15.2,0l0,2.2l-12.9,0l0,9l12,0l0,2.2l-12,0l0,12.1l-2.3,0Z" class="g3_1" />
<path d="M92.7,267.6c-0.9,0,-1.8,0,-2.7,0.1c-0.8,0.2,-1.6,0.4,-2.3,0.7c-0.7,0.2,-1.2,0.6,-1.6,1.1c-0.4,0.5,-0.6,1.1,-0.6,1.8c0,0.5,0.1,1,0.3,1.4c0.2,0.4,0.5,0.7,0.9,0.9c0.4,0.3,0.8,0.5,1.2,0.6c0.4,0.1,0.9,0.2,1.4,0.2c1.1,0,2.1,-0.2,2.8,-0.5c0.7,-0.3,1.3,-0.8,1.8,-1.3c0.4,-0.6,0.7,-1.2,0.9,-1.9c0.2,-0.6,0.3,-1.3,0.3,-2l0,-1.1Zm4.3,1.3c0,0.8,0,1.6,0,2.2c0,0.7,0,1.3,0.1,1.8c0,0.6,0,1.1,0.1,1.6c0,0.5,0.1,0.9,0.1,1.4l-2,0c-0.1,-0.8,-0.2,-1.7,-0.2,-2.7l-0.1,0c-0.6,1.1,-1.4,1.9,-2.3,2.4c-0.9,0.5,-2.1,0.8,-3.5,0.8c-0.7,0,-1.4,-0.1,-2.1,-0.3c-0.7,-0.2,-1.4,-0.5,-1.9,-0.9c-0.6,-0.4,-1,-0.9,-1.4,-1.5c-0.3,-0.6,-0.5,-1.4,-0.5,-2.3c0,-1.3,0.3,-2.3,1,-3c0.6,-0.8,1.4,-1.3,2.4,-1.7c0.9,-0.4,1.9,-0.6,3,-0.7c1.1,-0.1,2,-0.2,2.8,-0.2l2.6,0l0,-1c0,-1.4,-0.5,-2.5,-1.4,-3.1c-0.9,-0.6,-2,-0.9,-3.3,-0.9c-2,0,-3.6,0.6,-5.1,1.9L84,261.2c0.8,-0.8,1.8,-1.4,3,-1.8c1.2,-0.4,2.3,-0.6,3.4,-0.6c2,0,3.6,0.5,4.8,1.5c1.2,0.9,1.8,2.4,1.8,4.6Z" class="g3_1" />
<path d="M103.8,264c0,-0.4,0,-0.7,0,-1.2c0,-0.4,0,-0.9,0,-1.3c-0.1,-0.5,-0.1,-0.9,-0.1,-1.3c0,-0.4,0,-0.7,0,-0.9l2.1,0c0.1,0.6,0.1,1.2,0.1,1.8c0,0.6,0,0.9,0.1,1.1c0.5,-1,1.2,-1.8,2.1,-2.4c0.9,-0.6,1.9,-1,3.2,-1c0.2,0,0.4,0.1,0.6,0.1c0.2,0,0.4,0.1,0.6,0.1l-0.2,2.1c-0.3,0,-0.6,-0.1,-0.9,-0.1c-0.9,0,-1.7,0.2,-2.4,0.5c-0.7,0.3,-1.2,0.7,-1.7,1.2c-0.4,0.5,-0.8,1.1,-1,1.9c-0.2,0.7,-0.3,1.4,-0.3,2.2l0,9.1l-2.2,0Z" class="g3_1" />
<path d="M116.9,264c0,-0.4,0,-0.7,0,-1.2c0,-0.4,-0.1,-0.9,-0.1,-1.3c0,-0.5,0,-0.9,0,-1.3c0,-0.4,-0.1,-0.7,-0.1,-0.9l2.2,0c0,0.6,0,1.2,0.1,1.8c0,0.6,0,0.9,0.1,1.1l0.1,0c0.4,-0.9,1.1,-1.7,2.1,-2.4c1,-0.6,2.2,-1,3.6,-1c1.1,0,2.1,0.3,3,0.9c0.9,0.6,1.6,1.5,2,2.7c0.5,-1.2,1.3,-2.1,2.3,-2.7c1.1,-0.6,2.2,-0.9,3.3,-0.9c1.3,0,2.4,0.2,3.2,0.7c0.8,0.4,1.4,0.9,1.9,1.6c0.5,0.6,0.8,1.4,1,2.2c0.2,0.9,0.3,1.8,0.3,2.7l0,9.9l-2.2,0l0,-9.8c0,-0.7,-0.1,-1.3,-0.2,-1.9c-0.1,-0.7,-0.3,-1.3,-0.6,-1.8c-0.3,-0.5,-0.7,-0.9,-1.3,-1.2c-0.5,-0.3,-1.2,-0.4,-2.1,-0.4c-1,0,-1.8,0.2,-2.5,0.5c-0.6,0.4,-1.1,0.9,-1.5,1.5c-0.4,0.5,-0.6,1.2,-0.8,1.8c-0.1,0.7,-0.2,1.4,-0.2,2l0,9.3l-2.2,0l0,-10c0,-1.5,-0.3,-2.8,-0.8,-3.7c-0.6,-0.9,-1.5,-1.4,-2.6,-1.4c-0.8,0,-1.6,0.1,-2.3,0.4c-0.7,0.3,-1.3,0.7,-1.8,1.3c-0.6,0.5,-1,1.2,-1.3,2.1c-0.3,0.8,-0.4,1.8,-0.4,3l0,8.3l-2.2,0Z" class="g3_1" />
<path d="M161.7,266.2c0,-0.8,-0.1,-1.5,-0.4,-2.1c-0.3,-0.6,-0.7,-1.2,-1.2,-1.7c-0.5,-0.5,-1.2,-0.9,-1.9,-1.2c-0.7,-0.3,-1.4,-0.4,-2.2,-0.4c-1.2,0,-2.2,0.2,-3,0.7c-0.7,0.5,-1.4,1,-1.8,1.7c-0.5,0.6,-0.8,1.2,-1,1.8c-0.2,0.6,-0.3,1,-0.3,1.2Zm1.7,6.6c-0.8,1.3,-1.9,2.2,-3.1,2.7c-1.2,0.6,-2.6,0.9,-4.1,0.9c-1.3,0,-2.4,-0.3,-3.5,-0.7c-1,-0.4,-1.9,-1,-2.6,-1.8c-0.8,-0.8,-1.3,-1.7,-1.7,-2.8c-0.4,-1.1,-0.6,-2.2,-0.6,-3.5c0,-1.3,0.2,-2.4,0.6,-3.5c0.4,-1.1,1,-2,1.7,-2.8c0.8,-0.7,1.6,-1.3,2.6,-1.8c1,-0.4,2.2,-0.7,3.4,-0.7c1.3,0,2.4,0.3,3.4,0.7c0.9,0.5,1.7,1,2.4,1.8c0.7,0.7,1.2,1.5,1.5,2.5c0.3,0.9,0.5,1.9,0.5,2.8l0,1.5l-14,0c0,0.5,0.1,1.1,0.3,1.8c0.2,0.7,0.5,1.4,1,2.1c0.5,0.6,1.1,1.2,1.9,1.7c0.8,0.5,1.9,0.7,3.1,0.7c1.1,0,2.2,-0.3,3.2,-0.8c1.1,-0.5,1.9,-1.2,2.4,-2.1Z" class="g3_1" />
<path d="M169.8,264c0,-0.4,0,-0.7,0,-1.2c0,-0.4,-0.1,-0.9,-0.1,-1.3c0,-0.5,0,-0.9,0,-1.3c0,-0.4,-0.1,-0.7,-0.1,-0.9l2.2,0c0,0.6,0,1.2,0.1,1.8c0,0.6,0,0.9,0,1.1c0.6,-1,1.3,-1.8,2.2,-2.4c0.8,-0.6,1.9,-1,3.1,-1c0.3,0,0.5,0.1,0.7,0.1c0.2,0,0.4,0.1,0.6,0.1l-0.2,2.1c-0.3,0,-0.6,-0.1,-0.9,-0.1c-0.9,0,-1.7,0.2,-2.4,0.5c-0.7,0.3,-1.3,0.7,-1.7,1.2c-0.4,0.5,-0.8,1.1,-1,1.9c-0.2,0.7,-0.3,1.4,-0.3,2.2l0,9.1l-2.2,0Z" class="g3_1" />
<path d="M182.9,271.7c0.5,0.9,1.2,1.5,2.1,2c0.8,0.5,1.8,0.7,2.8,0.7c0.4,0,0.9,-0.1,1.3,-0.2c0.5,-0.2,0.9,-0.4,1.3,-0.6c0.3,-0.3,0.6,-0.6,0.8,-1c0.3,-0.3,0.4,-0.8,0.4,-1.3c0,-0.7,-0.3,-1.3,-0.8,-1.7c-0.4,-0.4,-1.1,-0.7,-1.8,-0.9c-0.7,-0.2,-1.5,-0.4,-2.4,-0.5c-0.8,-0.2,-1.6,-0.4,-2.3,-0.8c-0.8,-0.3,-1.4,-0.7,-1.9,-1.3c-0.4,-0.6,-0.7,-1.4,-0.7,-2.5c0,-0.8,0.2,-1.5,0.5,-2.1c0.4,-0.6,0.8,-1.1,1.3,-1.5c0.6,-0.4,1.2,-0.7,1.8,-0.9c0.7,-0.2,1.4,-0.3,2.1,-0.3c1.4,0,2.6,0.3,3.6,0.8c0.9,0.5,1.7,1.3,2.3,2.4l-2,1.1c-0.4,-0.7,-0.9,-1.3,-1.5,-1.7c-0.6,-0.4,-1.4,-0.6,-2.4,-0.6c-0.4,0,-0.8,0,-1.2,0.2c-0.4,0.1,-0.8,0.3,-1.1,0.5c-0.4,0.2,-0.7,0.5,-0.9,0.8c-0.2,0.3,-0.3,0.7,-0.3,1.2c0,0.7,0.2,1.2,0.7,1.6c0.5,0.4,1.1,0.7,1.8,0.9c0.8,0.2,1.5,0.3,2.4,0.5c0.9,0.1,1.7,0.4,2.4,0.7c0.7,0.3,1.3,0.8,1.8,1.4c0.5,0.6,0.7,1.5,0.7,2.6c0,0.9,-0.1,1.6,-0.4,2.2c-0.4,0.7,-0.8,1.2,-1.4,1.7c-0.5,0.4,-1.2,0.7,-1.9,0.9c-0.7,0.2,-1.5,0.4,-2.3,0.4c-1.4,0,-2.7,-0.3,-3.9,-0.9C182.6,275,181.7,274.1,181,273Z" class="g3_1" />
<path d="M200.6,272.7l2.5,0l-2.7,8.2l-2.2,0Z" class="g3_1" />
<path d="M220.2,264c0,-0.4,0,-0.7,0,-1.2c0,-0.4,-0.1,-0.9,-0.1,-1.3c0,-0.5,0,-0.9,0,-1.3c0,-0.4,-0.1,-0.7,-0.1,-0.9l2.2,0c0,0.6,0.1,1.2,0.1,1.8c0,0.6,0,0.9,0.1,1.1l0.1,0c0.4,-0.9,1.1,-1.7,2.1,-2.4c1,-0.6,2.2,-1,3.6,-1c1.3,0,2.3,0.2,3.1,0.7c0.8,0.4,1.5,0.9,2,1.6c0.4,0.6,0.7,1.4,0.9,2.2c0.2,0.9,0.3,1.8,0.3,2.7l0,9.9l-2.2,0l0,-9.8c0,-0.7,0,-1.3,-0.1,-1.9c-0.2,-0.7,-0.4,-1.3,-0.7,-1.8c-0.3,-0.5,-0.7,-0.9,-1.2,-1.2c-0.6,-0.3,-1.3,-0.4,-2.1,-0.4c-0.8,0,-1.6,0.1,-2.3,0.4c-0.7,0.3,-1.3,0.7,-1.8,1.3c-0.6,0.5,-1,1.2,-1.3,2.1c-0.3,0.8,-0.4,1.8,-0.4,3l0,8.3l-2.2,0Z" class="g3_1" />
<path d="M255.4,271.2c0,0.3,0,0.7,0.1,1.2c0,0.4,0,0.9,0,1.3c0,0.5,0.1,0.9,0.1,1.3c0,0.4,0,0.7,0,0.9l-2.2,0c0,-0.6,0,-1.2,0,-1.8c0,-0.6,0,-0.9,-0.1,-1.1l-0.1,0c-0.4,0.9,-1.2,1.7,-2.2,2.4c-1,0.6,-2.2,1,-3.5,1c-1.3,0,-2.4,-0.3,-3.2,-0.7c-0.8,-0.4,-1.5,-0.9,-1.9,-1.6c-0.5,-0.6,-0.8,-1.4,-1,-2.3c-0.2,-0.8,-0.2,-1.7,-0.2,-2.6l0,-9.9l2.1,0l0,9.8c0,0.6,0.1,1.3,0.2,1.9c0.1,0.7,0.3,1.2,0.6,1.7c0.3,0.6,0.8,1,1.3,1.3c0.5,0.3,1.2,0.4,2.1,0.4c0.8,0,1.5,-0.1,2.3,-0.4c0.7,-0.3,1.3,-0.7,1.8,-1.3c0.5,-0.5,0.9,-1.2,1.2,-2.1c0.3,-0.8,0.5,-1.9,0.5,-3l0,-8.3l2.1,0Z" class="g3_1" />
<path d="M270.6,261.2l-4.8,0l0,10.9c0,0.7,0.2,1.3,0.7,1.7c0.4,0.4,0.9,0.6,1.7,0.6c0.4,0,0.8,0,1.2,-0.2c0.4,-0.1,0.8,-0.2,1.2,-0.4l0.2,2c-0.4,0.1,-0.9,0.3,-1.4,0.4c-0.6,0.1,-1,0.2,-1.4,0.2c-0.8,0,-1.5,-0.2,-2,-0.4c-0.6,-0.2,-1,-0.5,-1.3,-0.9c-0.4,-0.4,-0.6,-0.8,-0.8,-1.4c-0.1,-0.5,-0.2,-1,-0.2,-1.6l0,-10.9l-3.6,0l0,-1.9l3.6,0l0,-4.8l2.1,0l0,4.8l4.8,0Z" class="g3_1" />
<path d="M275.5,264c0,-0.4,0,-0.7,0,-1.2c0,-0.4,0,-0.9,-0.1,-1.3c0,-0.5,0,-0.9,0,-1.3c0,-0.4,0,-0.7,0,-0.9l2.1,0c0,0.6,0.1,1.2,0.1,1.8c0,0.6,0,0.9,0.1,1.1c0.5,-1,1.2,-1.8,2.1,-2.4c0.9,-0.6,1.9,-1,3.2,-1c0.2,0,0.4,0.1,0.6,0.1c0.2,0,0.4,0.1,0.6,0.1l-0.2,2.1c-0.3,0,-0.6,-0.1,-0.9,-0.1c-0.9,0,-1.7,0.2,-2.4,0.5c-0.7,0.3,-1.2,0.7,-1.7,1.2c-0.4,0.5,-0.8,1.1,-1,1.9c-0.2,0.7,-0.3,1.4,-0.3,2.2l0,9.1l-2.2,0Z" class="g3_1" />
<path d="M289,259.3l2.1,0l0,16.6l-2.1,0l0,-16.6Zm-0.6,-6.6c0,-0.5,0.2,-0.9,0.5,-1.2c0.3,-0.3,0.7,-0.4,1.2,-0.4c0.4,0,0.8,0.1,1.1,0.4c0.3,0.3,0.5,0.7,0.5,1.2c0,0.4,-0.2,0.8,-0.5,1.1c-0.3,0.3,-0.7,0.5,-1.1,0.5c-0.5,0,-0.9,-0.2,-1.2,-0.5c-0.3,-0.3,-0.5,-0.7,-0.5,-1.1Z" class="g3_1" />
<path d="M306.5,261.2l-4.8,0l0,10.9c0,0.7,0.2,1.3,0.6,1.7c0.5,0.4,1,0.6,1.7,0.6c0.4,0,0.9,0,1.3,-0.2c0.4,-0.1,0.8,-0.2,1.2,-0.4l0.2,2c-0.4,0.1,-0.9,0.3,-1.4,0.4c-0.6,0.1,-1,0.2,-1.4,0.2c-0.8,0,-1.5,-0.2,-2,-0.4c-0.6,-0.2,-1,-0.5,-1.4,-0.9c-0.3,-0.4,-0.5,-0.8,-0.7,-1.4c-0.2,-0.5,-0.2,-1,-0.2,-1.6l0,-10.9l-3.6,0l0,-1.9l3.6,0l0,-4.8l2.1,0l0,4.8l4.8,0Z" class="g3_1" />
<path d="M311.8,259.3l2.2,0l0,16.6l-2.2,0l0,-16.6Zm-0.5,-6.6c0,-0.5,0.1,-0.9,0.4,-1.2c0.4,-0.3,0.7,-0.4,1.2,-0.4c0.5,0,0.8,0.1,1.2,0.4c0.3,0.3,0.4,0.7,0.4,1.2c0,0.4,-0.1,0.8,-0.4,1.1c-0.4,0.3,-0.7,0.5,-1.2,0.5c-0.5,0,-0.8,-0.2,-1.2,-0.5c-0.3,-0.3,-0.4,-0.7,-0.4,-1.1Z" class="g3_1" />
<path d="M322.4,267.6c0,0.9,0.2,1.8,0.5,2.6c0.3,0.9,0.7,1.6,1.3,2.2c0.6,0.6,1.3,1.1,2.1,1.5c0.8,0.3,1.7,0.5,2.7,0.5c1,0,1.9,-0.2,2.7,-0.5c0.9,-0.4,1.6,-0.9,2.1,-1.5c0.6,-0.6,1.1,-1.3,1.4,-2.2c0.3,-0.8,0.4,-1.7,0.4,-2.6c0,-0.9,-0.1,-1.8,-0.4,-2.7c-0.3,-0.8,-0.8,-1.5,-1.4,-2.1c-0.5,-0.6,-1.2,-1.1,-2.1,-1.5C330.9,261,330,260.8,329,260.8c-1,0,-1.9,0.2,-2.7,0.5c-0.8,0.4,-1.5,0.9,-2.1,1.5c-0.6,0.6,-1,1.3,-1.3,2.1c-0.3,0.9,-0.5,1.8,-0.5,2.7m-2.1,0c0,-1.3,0.2,-2.4,0.6,-3.5c0.4,-1.1,1,-2,1.8,-2.8c0.8,-0.8,1.7,-1.4,2.8,-1.8c1.1,-0.4,2.2,-0.7,3.5,-0.7c1.3,0,2.5,0.3,3.5,0.7c1.1,0.4,2,1,2.8,1.8c0.8,0.8,1.4,1.7,1.8,2.8c0.4,1.1,0.7,2.2,0.7,3.5c0,1.3,-0.3,2.4,-0.7,3.5c-0.4,1.1,-1,2,-1.8,2.8c-0.8,0.8,-1.7,1.4,-2.8,1.8c-1,0.4,-2.2,0.7,-3.5,0.7c-1.3,0,-2.4,-0.3,-3.5,-0.7c-1.1,-0.4,-2,-1,-2.8,-1.8c-0.8,-0.8,-1.4,-1.7,-1.8,-2.8c-0.4,-1.1,-0.6,-2.2,-0.6,-3.5Z" class="g3_1" />
<path d="M343.7,264c0,-0.4,0,-0.7,-0.1,-1.2c0,-0.4,0,-0.9,0,-1.3c0,-0.5,0,-0.9,-0.1,-1.3c0,-0.4,0,-0.7,0,-0.9l2.2,0c0,0.6,0,1.2,0,1.8c0,0.6,0,0.9,0.1,1.1l0.1,0c0.4,-0.9,1.2,-1.7,2.2,-2.4c1,-0.6,2.2,-1,3.5,-1c1.3,0,2.4,0.2,3.2,0.7c0.8,0.4,1.4,0.9,1.9,1.6c0.5,0.6,0.8,1.4,1,2.2c0.2,0.9,0.2,1.8,0.2,2.7l0,9.9l-2.1,0l0,-9.8c0,-0.7,-0.1,-1.3,-0.2,-1.9c-0.1,-0.7,-0.3,-1.3,-0.6,-1.8c-0.3,-0.5,-0.8,-0.9,-1.3,-1.2c-0.5,-0.3,-1.2,-0.4,-2.1,-0.4c-0.8,0,-1.5,0.1,-2.3,0.4c-0.7,0.3,-1.3,0.7,-1.8,1.3c-0.5,0.5,-0.9,1.2,-1.2,2.1c-0.3,0.8,-0.5,1.8,-0.5,3l0,8.3l-2.1,0Z" class="g3_1" />
<path d="M365.1,259.3l2.2,0l0,16.6l-2.2,0l0,-16.6Zm-0.5,-6.6c0,-0.5,0.2,-0.9,0.5,-1.2c0.3,-0.3,0.7,-0.4,1.1,-0.4c0.5,0,0.9,0.1,1.2,0.4c0.3,0.3,0.4,0.7,0.4,1.2c0,0.4,-0.1,0.8,-0.4,1.1c-0.3,0.3,-0.7,0.5,-1.2,0.5c-0.4,0,-0.8,-0.2,-1.1,-0.5c-0.3,-0.3,-0.5,-0.7,-0.5,-1.1Z" class="g3_1" />
<path d="M374.6,271.7c0.4,0.9,1.1,1.5,2,2c0.9,0.5,1.8,0.7,2.8,0.7c0.4,0,0.9,-0.1,1.3,-0.2c0.5,-0.2,0.9,-0.4,1.3,-0.6c0.3,-0.3,0.6,-0.6,0.9,-1c0.2,-0.3,0.3,-0.8,0.3,-1.3c0,-0.7,-0.2,-1.3,-0.7,-1.7c-0.5,-0.4,-1.1,-0.7,-1.9,-0.9c-0.7,-0.2,-1.5,-0.4,-2.3,-0.5c-0.9,-0.2,-1.7,-0.4,-2.4,-0.8c-0.7,-0.3,-1.3,-0.7,-1.8,-1.3c-0.5,-0.6,-0.8,-1.4,-0.8,-2.5c0,-0.8,0.2,-1.5,0.5,-2.1c0.4,-0.6,0.8,-1.1,1.3,-1.5c0.6,-0.4,1.2,-0.7,1.9,-0.9c0.6,-0.2,1.3,-0.3,2,-0.3c1.4,0,2.6,0.3,3.6,0.8c1,0.5,1.7,1.3,2.3,2.4l-2,1.1c-0.4,-0.7,-0.9,-1.3,-1.5,-1.7C380.8,261,380,260.8,379,260.8c-0.4,0,-0.8,0,-1.2,0.2c-0.4,0.1,-0.8,0.3,-1.1,0.5c-0.4,0.2,-0.6,0.5,-0.9,0.8c-0.2,0.3,-0.3,0.7,-0.3,1.2c0,0.7,0.2,1.2,0.7,1.6c0.5,0.4,1.1,0.7,1.8,0.9c0.8,0.2,1.6,0.3,2.4,0.5c0.9,0.1,1.7,0.4,2.4,0.7c0.7,0.3,1.3,0.8,1.8,1.4c0.5,0.6,0.8,1.5,0.8,2.6c0,0.9,-0.2,1.6,-0.5,2.2c-0.3,0.7,-0.8,1.2,-1.4,1.7c-0.5,0.4,-1.2,0.7,-1.9,0.9c-0.7,0.2,-1.5,0.4,-2.3,0.4c-1.4,0,-2.7,-0.3,-3.9,-0.9c-1.2,-0.5,-2.1,-1.4,-2.8,-2.5Z" class="g3_1" />
<path d="M399.1,261.2l-4.8,0l0,10.9c0,0.7,0.2,1.3,0.6,1.7c0.5,0.4,1,0.6,1.7,0.6c0.4,0,0.9,0,1.3,-0.2c0.4,-0.1,0.8,-0.2,1.2,-0.4l0.2,2c-0.4,0.1,-0.9,0.3,-1.4,0.4c-0.6,0.1,-1,0.2,-1.4,0.2c-0.8,0,-1.5,-0.2,-2,-0.4c-0.6,-0.2,-1,-0.5,-1.4,-0.9c-0.3,-0.4,-0.5,-0.8,-0.7,-1.4c-0.2,-0.5,-0.2,-1,-0.2,-1.6l0,-10.9l-3.6,0l0,-1.9l3.6,0l0,-4.8l2.1,0l0,4.8l4.8,0Z" class="g3_1" />
<path d="M404.1,271.7c0.4,0.9,1.1,1.5,2,2c0.9,0.5,1.8,0.7,2.8,0.7c0.4,0,0.9,-0.1,1.4,-0.2c0.4,-0.2,0.8,-0.4,1.2,-0.6c0.3,-0.3,0.6,-0.6,0.9,-1c0.2,-0.3,0.3,-0.8,0.3,-1.3c0,-0.7,-0.2,-1.3,-0.7,-1.7c-0.5,-0.4,-1.1,-0.7,-1.8,-0.9c-0.8,-0.2,-1.6,-0.4,-2.4,-0.5c-0.9,-0.2,-1.7,-0.4,-2.4,-0.8c-0.7,-0.3,-1.3,-0.7,-1.8,-1.3c-0.5,-0.6,-0.8,-1.4,-0.8,-2.5c0,-0.8,0.2,-1.5,0.5,-2.1c0.4,-0.6,0.8,-1.1,1.4,-1.5c0.5,-0.4,1.1,-0.7,1.8,-0.9c0.6,-0.2,1.3,-0.3,2,-0.3c1.4,0,2.6,0.3,3.6,0.8c1,0.5,1.7,1.3,2.3,2.4l-1.9,1.1c-0.5,-0.7,-1,-1.3,-1.6,-1.7c-0.6,-0.4,-1.4,-0.6,-2.4,-0.6c-0.4,0,-0.8,0,-1.2,0.2c-0.4,0.1,-0.8,0.3,-1.1,0.5c-0.3,0.2,-0.6,0.5,-0.9,0.8c-0.2,0.3,-0.3,0.7,-0.3,1.2c0,0.7,0.2,1.2,0.7,1.6c0.5,0.4,1.1,0.7,1.9,0.9c0.7,0.2,1.5,0.3,2.3,0.5c0.9,0.1,1.7,0.4,2.4,0.7c0.7,0.3,1.3,0.8,1.8,1.4c0.5,0.6,0.8,1.5,0.8,2.6c0,0.9,-0.2,1.6,-0.5,2.2c-0.3,0.7,-0.8,1.2,-1.3,1.7c-0.6,0.4,-1.3,0.7,-2,0.9c-0.7,0.2,-1.5,0.4,-2.2,0.4c-1.5,0,-2.8,-0.3,-4,-0.9c-1.2,-0.5,-2.1,-1.4,-2.7,-2.5Z" class="g3_1" />
<path d="M421.8,272.7l2.5,0l-2.8,8.2l-2.1,0Z" class="g3_1" />
<path d="M450,267.6c-0.9,0,-1.8,0,-2.7,0.1c-0.8,0.2,-1.6,0.4,-2.3,0.7c-0.7,0.2,-1.2,0.6,-1.6,1.1c-0.4,0.5,-0.6,1.1,-0.6,1.8c0,0.5,0.1,1,0.3,1.4c0.2,0.4,0.5,0.7,0.9,0.9c0.3,0.3,0.7,0.5,1.2,0.6c0.4,0.1,0.9,0.2,1.3,0.2c1.2,0,2.1,-0.2,2.9,-0.5c0.7,-0.3,1.3,-0.8,1.8,-1.3c0.4,-0.6,0.7,-1.2,0.9,-1.9c0.2,-0.6,0.2,-1.3,0.2,-2l0,-1.1Zm4.3,1.3c0,0.8,0,1.6,0,2.2c0,0.7,0,1.3,0.1,1.8c0,0.6,0,1.1,0.1,1.6c0,0.5,0,0.9,0.1,1.4l-2,0c-0.1,-0.8,-0.2,-1.7,-0.2,-2.7l-0.1,0c-0.6,1.1,-1.4,1.9,-2.3,2.4c-0.9,0.5,-2.1,0.8,-3.5,0.8c-0.7,0,-1.5,-0.1,-2.2,-0.3c-0.7,-0.2,-1.3,-0.5,-1.8,-0.9c-0.6,-0.4,-1,-0.9,-1.4,-1.5c-0.3,-0.6,-0.5,-1.4,-0.5,-2.3c0,-1.3,0.3,-2.3,1,-3c0.6,-0.8,1.4,-1.3,2.4,-1.7c0.9,-0.4,1.9,-0.6,3,-0.7c1.1,-0.1,2,-0.2,2.8,-0.2l2.5,0l0,-1c0,-1.4,-0.4,-2.5,-1.3,-3.1c-0.9,-0.6,-2,-0.9,-3.3,-0.9c-2,0,-3.7,0.6,-5.1,1.9l-1.3,-1.5c0.8,-0.8,1.8,-1.4,3,-1.8c1.1,-0.4,2.3,-0.6,3.4,-0.6c2,0,3.6,0.5,4.8,1.5c1.2,0.9,1.8,2.4,1.8,4.6Z" class="g3_1" />
<path d="M461.1,264c0,-0.4,0,-0.7,0,-1.2c0,-0.4,0,-0.9,-0.1,-1.3c0,-0.5,0,-0.9,0,-1.3c0,-0.4,0,-0.7,0,-0.9l2.1,0c0,0.6,0.1,1.2,0.1,1.8c0,0.6,0,0.9,0.1,1.1l0.1,0c0.4,-0.9,1.1,-1.7,2.1,-2.4c1,-0.6,2.2,-1,3.6,-1c1.3,0,2.3,0.2,3.1,0.7c0.8,0.4,1.5,0.9,2,1.6c0.4,0.6,0.8,1.4,0.9,2.2c0.2,0.9,0.3,1.8,0.3,2.7l0,9.9l-2.2,0l0,-9.8c0,-0.7,0,-1.3,-0.1,-1.9c-0.2,-0.7,-0.4,-1.3,-0.7,-1.8c-0.3,-0.5,-0.7,-0.9,-1.2,-1.2c-0.6,-0.3,-1.3,-0.4,-2.1,-0.4c-0.8,0,-1.6,0.1,-2.3,0.4c-0.7,0.3,-1.3,0.7,-1.8,1.3c-0.5,0.5,-1,1.2,-1.3,2.1c-0.3,0.8,-0.4,1.8,-0.4,3l0,8.3l-2.2,0Z" class="g3_1" />
<path d="M497,267.6c0,-0.9,-0.2,-1.8,-0.5,-2.7c-0.4,-0.8,-0.9,-1.5,-1.5,-2.1c-0.6,-0.6,-1.4,-1.1,-2.2,-1.5c-0.8,-0.3,-1.7,-0.5,-2.7,-0.5c-1,0,-2,0.2,-2.8,0.5c-0.8,0.4,-1.5,0.9,-2.1,1.5c-0.5,0.6,-1,1.3,-1.3,2.1c-0.3,0.9,-0.4,1.8,-0.4,2.7c0,0.9,0.1,1.8,0.4,2.6c0.3,0.9,0.8,1.6,1.3,2.2c0.6,0.6,1.3,1.1,2.1,1.5c0.8,0.3,1.8,0.5,2.8,0.5c1,0,1.9,-0.2,2.7,-0.5c0.8,-0.4,1.6,-0.9,2.2,-1.5c0.6,-0.6,1.1,-1.3,1.5,-2.2c0.3,-0.8,0.5,-1.7,0.5,-2.6m-0.2,5.4l-0.1,0c-0.3,0.6,-0.7,1.1,-1.2,1.5c-0.5,0.4,-1.1,0.8,-1.7,1c-0.6,0.3,-1.2,0.5,-1.8,0.7c-0.7,0.1,-1.3,0.2,-1.9,0.2c-1.3,0,-2.5,-0.3,-3.6,-0.7c-1,-0.4,-2,-1,-2.7,-1.8c-0.8,-0.8,-1.4,-1.7,-1.8,-2.8c-0.5,-1.1,-0.7,-2.2,-0.7,-3.5c0,-1.3,0.2,-2.4,0.7,-3.5c0.4,-1.1,1,-2,1.8,-2.8c0.7,-0.8,1.7,-1.4,2.7,-1.8c1.1,-0.4,2.3,-0.7,3.6,-0.7c0.6,0,1.2,0.1,1.9,0.2c0.6,0.2,1.2,0.4,1.8,0.7c0.6,0.2,1.2,0.6,1.7,1c0.5,0.4,0.9,0.9,1.2,1.5l0.1,0l0,-13.5l2.2,0l0,27.2l-2.2,0Z" class="g3_1" />
<path d="M529.7,273.5c-0.8,1,-1.7,1.7,-2.7,2.1c-1.1,0.5,-2.2,0.8,-3.4,0.8c-1.3,0,-2.4,-0.3,-3.5,-0.7c-1.1,-0.4,-2,-1,-2.8,-1.8c-0.8,-0.8,-1.4,-1.7,-1.8,-2.8c-0.4,-1.1,-0.6,-2.2,-0.6,-3.5c0,-1.3,0.2,-2.4,0.6,-3.5c0.4,-1.1,1,-2,1.8,-2.8c0.8,-0.8,1.7,-1.4,2.8,-1.8c1.1,-0.4,2.2,-0.7,3.5,-0.7c1.2,0,2.4,0.3,3.4,0.8c1.1,0.5,2,1.2,2.8,2.1l-1.7,1.3c-0.6,-0.7,-1.3,-1.2,-2.1,-1.6c-0.7,-0.4,-1.5,-0.6,-2.4,-0.6c-1,0,-1.9,0.2,-2.7,0.5c-0.8,0.4,-1.5,0.9,-2.1,1.5c-0.6,0.6,-1,1.3,-1.3,2.1c-0.3,0.9,-0.5,1.8,-0.5,2.7c0,0.9,0.2,1.8,0.5,2.6c0.3,0.9,0.7,1.6,1.3,2.2c0.6,0.6,1.3,1.1,2.1,1.5c0.8,0.3,1.7,0.5,2.7,0.5c0.9,0,1.8,-0.2,2.5,-0.6c0.8,-0.4,1.4,-1,2,-1.7Z" class="g3_1" />
<path d="M548.3,271.2c0,0.3,0,0.7,0,1.2c0.1,0.4,0.1,0.9,0.1,1.3c0,0.5,0,0.9,0,1.3c0.1,0.4,0.1,0.7,0.1,0.9l-2.2,0c0,-0.6,0,-1.2,0,-1.8c-0.1,-0.6,-0.1,-0.9,-0.1,-1.1l-0.1,0c-0.5,0.9,-1.2,1.7,-2.2,2.4c-1,0.6,-2.2,1,-3.5,1c-1.3,0,-2.4,-0.3,-3.2,-0.7c-0.8,-0.4,-1.5,-0.9,-2,-1.6c-0.4,-0.6,-0.8,-1.4,-0.9,-2.3C534.1,271,534,270.1,534,269.2l0,-9.9l2.2,0l0,9.8c0,0.6,0,1.3,0.2,1.9c0.1,0.7,0.3,1.2,0.6,1.7c0.3,0.6,0.7,1,1.3,1.3c0.5,0.3,1.2,0.4,2.1,0.4c0.8,0,1.5,-0.1,2.2,-0.4c0.7,-0.3,1.3,-0.7,1.9,-1.3c0.5,-0.5,0.9,-1.2,1.2,-2.1c0.3,-0.8,0.4,-1.9,0.4,-3l0,-8.3l2.2,0Z" class="g3_1" />
<path d="M555.7,248.7l2.1,0l0,27.2l-2.1,0l0,-27.2Z" class="g3_1" />
<path d="M565.4,259.3l2.2,0l0,16.6l-2.2,0l0,-16.6Zm-0.5,-6.6c0,-0.5,0.2,-0.9,0.5,-1.2c0.3,-0.3,0.7,-0.4,1.1,-0.4c0.5,0,0.9,0.1,1.2,0.4c0.3,0.3,0.4,0.7,0.4,1.2c0,0.4,-0.1,0.8,-0.4,1.1c-0.3,0.3,-0.7,0.5,-1.2,0.5c-0.4,0,-0.8,-0.2,-1.1,-0.5c-0.3,-0.3,-0.5,-0.7,-0.5,-1.1Z" class="g3_1" />
<path d="M574.8,264c0,-0.4,0,-0.7,0,-1.2c0,-0.4,-0.1,-0.9,-0.1,-1.3c0,-0.5,0,-0.9,0,-1.3c-0.1,-0.4,-0.1,-0.7,-0.1,-0.9l2.2,0c0,0.6,0,1.2,0.1,1.8c0,0.6,0,0.9,0,1.1l0.1,0c0.5,-0.9,1.2,-1.7,2.2,-2.4c1,-0.6,2.2,-1,3.5,-1c1.3,0,2.4,0.2,3.2,0.7c0.8,0.4,1.5,0.9,1.9,1.6c0.5,0.6,0.8,1.4,1,2.2c0.2,0.9,0.3,1.8,0.3,2.7l0,9.9l-2.2,0l0,-9.8c0,-0.7,0,-1.3,-0.2,-1.9c-0.1,-0.7,-0.3,-1.3,-0.6,-1.8c-0.3,-0.5,-0.7,-0.9,-1.3,-1.2c-0.5,-0.3,-1.2,-0.4,-2.1,-0.4c-0.8,0,-1.5,0.1,-2.2,0.4c-0.7,0.3,-1.3,0.7,-1.8,1.3c-0.6,0.5,-1,1.2,-1.3,2.1c-0.3,0.8,-0.4,1.8,-0.4,3l0,8.3l-2.2,0Z" class="g3_1" />
<path d="M604.5,267.6c-0.9,0,-1.8,0,-2.6,0.1c-0.9,0.2,-1.6,0.4,-2.3,0.7c-0.7,0.2,-1.2,0.6,-1.7,1.1c-0.4,0.5,-0.6,1.1,-0.6,1.8c0,0.5,0.1,1,0.4,1.4c0.2,0.4,0.5,0.7,0.9,0.9c0.3,0.3,0.7,0.5,1.2,0.6c0.4,0.1,0.9,0.2,1.3,0.2c1.2,0,2.1,-0.2,2.9,-0.5c0.7,-0.3,1.3,-0.8,1.7,-1.3c0.5,-0.6,0.8,-1.2,1,-1.9c0.1,-0.6,0.2,-1.3,0.2,-2l0,-1.1Zm4.4,1.3c0,0.8,0,1.6,0,2.2c0,0.7,0,1.3,0,1.8c0.1,0.6,0.1,1.1,0.1,1.6c0.1,0.5,0.1,0.9,0.2,1.4l-2,0C607,275.1,607,274.2,607,273.2l-0.1,0c-0.6,1.1,-1.4,1.9,-2.3,2.4c-1,0.5,-2.1,0.8,-3.6,0.8c-0.7,0,-1.4,-0.1,-2.1,-0.3c-0.7,-0.2,-1.3,-0.5,-1.9,-0.9c-0.5,-0.4,-1,-0.9,-1.3,-1.5c-0.4,-0.6,-0.5,-1.4,-0.5,-2.3c0,-1.3,0.3,-2.3,0.9,-3c0.7,-0.8,1.5,-1.3,2.4,-1.7c1,-0.4,2,-0.6,3.1,-0.7c1,-0.1,2,-0.2,2.8,-0.2l2.5,0l0,-1c0,-1.4,-0.4,-2.5,-1.3,-3.1c-0.9,-0.6,-2,-0.9,-3.4,-0.9c-1.9,0,-3.6,0.6,-5,1.9l-1.3,-1.5c0.8,-0.8,1.8,-1.4,2.9,-1.8c1.2,-0.4,2.4,-0.6,3.4,-0.6c2.1,0,3.7,0.5,4.9,1.5c1.2,0.9,1.8,2.4,1.8,4.6Z" class="g3_1" />
<path d="M615.7,264c0,-0.4,0,-0.7,0,-1.2c0,-0.4,-0.1,-0.9,-0.1,-1.3c0,-0.5,0,-0.9,0,-1.3c-0.1,-0.4,-0.1,-0.7,-0.1,-0.9l2.2,0c0,0.6,0,1.2,0,1.8c0.1,0.6,0.1,0.9,0.1,1.1c0.6,-1,1.3,-1.8,2.2,-2.4c0.8,-0.6,1.9,-1,3.1,-1c0.3,0,0.5,0.1,0.7,0.1c0.2,0,0.4,0.1,0.6,0.1l-0.3,2.1c-0.2,0,-0.5,-0.1,-0.8,-0.1c-0.9,0,-1.7,0.2,-2.4,0.5c-0.7,0.3,-1.3,0.7,-1.7,1.2c-0.5,0.5,-0.8,1.1,-1,1.9c-0.2,0.7,-0.3,1.4,-0.3,2.2l0,9.1l-2.2,0Z" class="g3_1" />
<path d="M633.5,281.1c-0.4,1.1,-1,1.9,-1.7,2.5c-0.7,0.7,-1.7,1,-2.9,1c-0.4,0,-0.7,-0.1,-1.1,-0.1c-0.3,-0.1,-0.7,-0.2,-1,-0.3l0.2,-2c0.3,0.1,0.6,0.2,0.9,0.3c0.4,0.1,0.7,0.1,1,0.1c0.4,0,0.8,-0.1,1.1,-0.2c0.3,-0.2,0.5,-0.4,0.7,-0.7c0.3,-0.2,0.4,-0.5,0.6,-0.9c0.2,-0.3,0.3,-0.6,0.4,-1l1.5,-3.8l-6.8,-16.7l2.5,0l5.5,14l5.3,-14l2.4,0Z" class="g3_1" />
<path d="M665.6,267.6c-0.9,0,-1.8,0,-2.6,0.1c-0.9,0.2,-1.7,0.4,-2.3,0.7c-0.7,0.2,-1.3,0.6,-1.7,1.1c-0.4,0.5,-0.6,1.1,-0.6,1.8c0,0.5,0.1,1,0.4,1.4c0.2,0.4,0.5,0.7,0.8,0.9c0.4,0.3,0.8,0.5,1.2,0.6c0.5,0.1,0.9,0.2,1.4,0.2c1.1,0,2.1,-0.2,2.8,-0.5c0.8,-0.3,1.4,-0.8,1.8,-1.3c0.5,-0.6,0.8,-1.2,0.9,-1.9c0.2,-0.6,0.3,-1.3,0.3,-2l0,-1.1Zm4.3,1.3c0,0.8,0,1.6,0.1,2.2c0,0.7,0,1.3,0,1.8c0,0.6,0.1,1.1,0.1,1.6c0,0.5,0.1,0.9,0.2,1.4l-2.1,0c-0.1,-0.8,-0.2,-1.7,-0.2,-2.7c-0.7,1.1,-1.4,1.9,-2.4,2.4c-0.9,0.5,-2.1,0.8,-3.5,0.8c-0.7,0,-1.4,-0.1,-2.1,-0.3c-0.7,-0.2,-1.3,-0.5,-1.9,-0.9c-0.5,-0.4,-1,-0.9,-1.3,-1.5c-0.4,-0.6,-0.6,-1.4,-0.6,-2.3c0,-1.3,0.4,-2.3,1,-3c0.7,-0.8,1.5,-1.3,2.4,-1.7c1,-0.4,2,-0.6,3,-0.7c1.1,-0.1,2.1,-0.2,2.9,-0.2l2.5,0l0,-1c0,-1.4,-0.5,-2.5,-1.3,-3.1c-0.9,-0.6,-2,-0.9,-3.4,-0.9c-1.9,0,-3.6,0.6,-5.1,1.9L657,261.2c0.8,-0.8,1.7,-1.4,2.9,-1.8c1.2,-0.4,2.3,-0.6,3.4,-0.6c2,0,3.6,0.5,4.8,1.5c1.2,0.9,1.8,2.4,1.8,4.6Z" class="g3_1" />
<path d="M676.8,264c0,-0.4,0,-0.7,0,-1.2c-0.1,-0.4,-0.1,-0.9,-0.1,-1.3c0,-0.5,0,-0.9,-0.1,-1.3c0,-0.4,0,-0.7,0,-0.9l2.2,0c0,0.6,0,1.2,0,1.8c0,0.6,0.1,0.9,0.1,1.1c0.6,-1,1.3,-1.8,2.1,-2.4c0.9,-0.6,2,-1,3.2,-1c0.2,0,0.4,0.1,0.6,0.1c0.2,0,0.5,0.1,0.7,0.1l-0.3,2.1c-0.3,0,-0.5,-0.1,-0.8,-0.1c-0.9,0,-1.8,0.2,-2.4,0.5c-0.7,0.3,-1.3,0.7,-1.7,1.2c-0.5,0.5,-0.8,1.1,-1,1.9c-0.2,0.7,-0.4,1.4,-0.4,2.2l0,9.1l-2.1,0Z" class="g3_1" />
<path d="M698,261.2l-4.7,0l0,10.9c0,0.7,0.2,1.3,0.6,1.7c0.4,0.4,0.9,0.6,1.7,0.6c0.4,0,0.8,0,1.2,-0.2c0.4,-0.1,0.8,-0.2,1.2,-0.4l0.2,2c-0.4,0.1,-0.9,0.3,-1.4,0.4c-0.5,0.1,-1,0.2,-1.4,0.2c-0.8,0,-1.5,-0.2,-2,-0.4c-0.6,-0.2,-1,-0.5,-1.3,-0.9c-0.4,-0.4,-0.6,-0.8,-0.8,-1.4c-0.1,-0.5,-0.2,-1,-0.2,-1.6l0,-10.9l-3.6,0l0,-1.9l3.6,0l0,-4.8l2.2,0l0,4.8l4.7,0Z" class="g3_1" />
<path d="M703.3,259.3l2.2,0l0,16.6l-2.2,0l0,-16.6Zm-0.5,-6.6c0,-0.5,0.2,-0.9,0.5,-1.2c0.3,-0.3,0.7,-0.4,1.1,-0.4c0.5,0,0.9,0.1,1.2,0.4c0.3,0.3,0.4,0.7,0.4,1.2c0,0.4,-0.1,0.8,-0.4,1.1c-0.3,0.3,-0.7,0.5,-1.2,0.5c-0.4,0,-0.8,-0.2,-1.1,-0.5c-0.3,-0.3,-0.5,-0.7,-0.5,-1.1Z" class="g3_1" />
<path d="M712.7,271.7c0.5,0.9,1.2,1.5,2.1,2c0.9,0.5,1.8,0.7,2.8,0.7c0.4,0,0.9,-0.1,1.3,-0.2c0.5,-0.2,0.9,-0.4,1.3,-0.6c0.3,-0.3,0.6,-0.6,0.8,-1c0.3,-0.3,0.4,-0.8,0.4,-1.3c0,-0.7,-0.3,-1.3,-0.7,-1.7c-0.5,-0.4,-1.1,-0.7,-1.9,-0.9c-0.7,-0.2,-1.5,-0.4,-2.3,-0.5c-0.9,-0.2,-1.7,-0.4,-2.4,-0.8c-0.7,-0.3,-1.4,-0.7,-1.8,-1.3c-0.5,-0.6,-0.8,-1.4,-0.8,-2.5c0,-0.8,0.2,-1.5,0.5,-2.1c0.4,-0.6,0.8,-1.1,1.3,-1.5c0.6,-0.4,1.2,-0.7,1.9,-0.9c0.6,-0.2,1.3,-0.3,2,-0.3c1.4,0,2.6,0.3,3.6,0.8c1,0.5,1.7,1.3,2.3,2.4l-2,1.1c-0.4,-0.7,-0.9,-1.3,-1.5,-1.7c-0.6,-0.4,-1.4,-0.6,-2.4,-0.6c-0.4,0,-0.8,0,-1.2,0.2c-0.4,0.1,-0.8,0.3,-1.1,0.5c-0.4,0.2,-0.6,0.5,-0.9,0.8c-0.2,0.3,-0.3,0.7,-0.3,1.2c0,0.7,0.2,1.2,0.7,1.6c0.5,0.4,1.1,0.7,1.8,0.9c0.8,0.2,1.6,0.3,2.4,0.5c0.9,0.1,1.7,0.4,2.4,0.7c0.7,0.3,1.3,0.8,1.8,1.4c0.5,0.6,0.8,1.5,0.8,2.6c0,0.9,-0.2,1.6,-0.5,2.2c-0.4,0.7,-0.8,1.2,-1.4,1.7c-0.5,0.4,-1.2,0.7,-1.9,0.9c-0.7,0.2,-1.5,0.4,-2.3,0.4c-1.4,0,-2.7,-0.3,-3.9,-0.9c-1.2,-0.5,-2.1,-1.4,-2.8,-2.5Z" class="g3_1" />
<path d="M737.3,261.2l-4.8,0l0,10.9c0,0.7,0.2,1.3,0.6,1.7c0.4,0.4,1,0.6,1.7,0.6c0.4,0,0.9,0,1.3,-0.2c0.4,-0.1,0.8,-0.2,1.2,-0.4l0.2,2c-0.4,0.1,-0.9,0.3,-1.4,0.4c-0.6,0.1,-1,0.2,-1.4,0.2c-0.8,0,-1.5,-0.2,-2,-0.4c-0.6,-0.2,-1,-0.5,-1.4,-0.9c-0.3,-0.4,-0.5,-0.8,-0.7,-1.4c-0.2,-0.5,-0.2,-1,-0.2,-1.6l0,-10.9l-3.6,0l0,-1.9l3.6,0l0,-4.8l2.1,0l0,4.8l4.8,0Z" class="g3_1" />
<path d="M742.3,271.7c0.4,0.9,1.1,1.5,2,2c0.9,0.5,1.8,0.7,2.8,0.7c0.4,0,0.9,-0.1,1.4,-0.2c0.4,-0.2,0.8,-0.4,1.2,-0.6c0.3,-0.3,0.6,-0.6,0.9,-1c0.2,-0.3,0.3,-0.8,0.3,-1.3c0,-0.7,-0.2,-1.3,-0.7,-1.7c-0.5,-0.4,-1.1,-0.7,-1.9,-0.9c-0.7,-0.2,-1.5,-0.4,-2.3,-0.5c-0.9,-0.2,-1.7,-0.4,-2.4,-0.8c-0.7,-0.3,-1.3,-0.7,-1.8,-1.3c-0.5,-0.6,-0.8,-1.4,-0.8,-2.5c0,-0.8,0.2,-1.5,0.5,-2.1c0.4,-0.6,0.8,-1.1,1.3,-1.5c0.6,-0.4,1.2,-0.7,1.9,-0.9c0.6,-0.2,1.3,-0.3,2,-0.3c1.4,0,2.6,0.3,3.6,0.8c1,0.5,1.7,1.3,2.3,2.4l-2,1.1c-0.4,-0.7,-0.9,-1.3,-1.5,-1.7c-0.6,-0.4,-1.4,-0.6,-2.4,-0.6c-0.4,0,-0.8,0,-1.2,0.2c-0.4,0.1,-0.8,0.3,-1.1,0.5c-0.4,0.2,-0.6,0.5,-0.9,0.8c-0.2,0.3,-0.3,0.7,-0.3,1.2c0,0.7,0.2,1.2,0.7,1.6c0.5,0.4,1.1,0.7,1.9,0.9c0.7,0.2,1.5,0.3,2.3,0.5c0.9,0.1,1.7,0.4,2.4,0.7c0.7,0.3,1.3,0.8,1.8,1.4c0.5,0.6,0.8,1.5,0.8,2.6c0,0.9,-0.2,1.6,-0.5,2.2c-0.3,0.7,-0.8,1.2,-1.4,1.7c-0.5,0.4,-1.2,0.7,-1.9,0.9c-0.7,0.2,-1.5,0.4,-2.3,0.4c-1.4,0,-2.7,-0.3,-3.9,-0.9C741.9,275,741,274.1,740.3,273Z" class="g3_1" />

</svg>
